# xmcd CD database file
#
# Track frame offsets:
#	150
#	13013
#	24414
#	33989
#	46740
#	59003
#	72429
#	83305
#	94852
#	107041
#	119566
#	128089
#	142227
#	153603
#	164144
#	175587
#
# Disc length: 2529 seconds
#
# Revision: 0
# Processed by: cddbd v1.5.1PL2 Copyright (c) Steve Scherf et al.
# Submitted via: CDex 1.51
#
DISCID=da09df10
DTITLE=Don Winters And The Winters Brothers - The Yodeling King
DYEAR=1984
DGENRE=Country
TTITLE0=Way Out There
TTITLE1=Back In The Saddle Again
TTITLE2=Kalua
TTITLE3=Chime Bells
TTITLE4=Don't Let The Stars Get In Your Eyes
TTITLE5=Rosita
TTITLE6=True Love Gone Away
TTITLE7=Call Me The Breeze
TTITLE8=In The Mood
TTITLE9=Yodel Our Way To The USA
TTITLE10=Cattle Call
TTITLE11=Blue Yodel No. 1 (T For Texas)
TTITLE12=Galway Bay
TTITLE13=Columbus Stockade Blues
TTITLE14=Sioux City Sue
TTITLE15=The Yodeling King
EXTD=YEAR: 1984
EXTT0=
EXTT1=
EXTT2=
EXTT3=
EXTT4=
EXTT5=
EXTT6=
EXTT7=
EXTT8=
EXTT9=
EXTT10=
EXTT11=
EXTT12=
EXTT13=
EXTT14=
EXTT15=
PLAYORDER=
